# xmcd
#
# Track frame offsets: 
#        183
#        13508
#        28938
#        47108
#        57905
#        72420
#        85463
#        98868
#        116563
#        132390
#        149180
#
# Disc length: 2297 seconds
#
# Revision: 1
# Processed by: cddbd v1.5.2PL0 Copyright (c) Steve Scherf et al.
# Submitted via: ExactAudioCopy v0.99pb4
#
DISCID=a708f70b
DTITLE=The Ozark Mountain Daredevils - The Car Over The Lake Album
DYEAR=1975
DGENRE=Southern Rock
TTITLE0=Keep On Churnin'
TTITLE1=If I Only Knew
TTITLE2=Leatherwood
TTITLE3=Cobblestone Mountain
TTITLE4=Mr Powell
TTITLE5=Gypsy Forest
TTITLE6=Thin Ice
TTITLE7=From Time To Time
TTITLE8=Southern Cross
TTITLE9=Out On The Sea
TTITLE10=Whippoorwill
EXTD=
EXTT0=
EXTT1=
EXTT2=
EXTT3=
EXTT4=
EXTT5=
EXTT6=
EXTT7=
EXTT8=
EXTT9=
EXTT10=
PLAYORDER=
